<svg xmlns="http://www.w3.org/2000/svg" viewBox="0 0 64 64" id="T">
  <g fill="#2b7fff" class="color000000 svgShape">
    <path d="M10.76,63.5A10.27,10.27,0,0,1,.5,53.24V10.76A10.27,10.27,0,0,1,10.76.5H53.24A10.27,10.27,0,0,1,63.5,10.76V53.24A10.27,10.27,0,0,1,53.24,63.5ZM32,43.55a8.45,8.45,0,1,0,0,16.9,8.45,8.45,0,1,0,0-16.9Zm20,4.72A3.73,3.73,0,1,0,55.69,52,3.66,3.66,0,0,0,52,48.27h0Zm0-24.72A8.45,8.45,0,1,0,60.5,32,8.32,8.32,0,0,0,52,23.55Zm-20,0a8.45,8.45,0,1,0,0,16.9,8.45,8.45,0,1,0,0-16.9ZM8,39h3V25.61h4.58V23H3.48v2.65H8ZM52,3.55A8.31,8.31,0,0,0,43.5,12a8.5,8.5,0,1,0,17,0A8.32,8.32,0,0,0,52,3.55ZM32,8.27A3.66,3.66,0,0,0,28.31,12a3.69,3.69,0,1,0,7.38,0A3.65,3.65,0,0,0,32,8.27h0Z" fill="#2b7fff" class="color000000 svgShape"></path>
    <path d="M53.24,1A9.77,9.77,0,0,1,63,10.76V53.24A9.77,9.77,0,0,1,53.24,63H10.76A9.77,9.77,0,0,1,1,53.24V10.76A9.77,9.77,0,0,1,10.76,1H53.24M52,21a9,9,0,0,0,9-9,9,9,0,0,0-18,0,9,9,0,0,0,9,9M32,16.23h0A4.13,4.13,0,0,0,36.19,12,4.13,4.13,0,0,0,32,7.77H32A4.13,4.13,0,0,0,27.81,12,4.13,4.13,0,0,0,32,16.23h0M3,26.11H7.54V39.45h4V26.11h4.58V22.46H3v3.65M52,41A8.8,8.8,0,0,0,61,32V32a9,9,0,0,0-18,0V32A8.8,8.8,0,0,0,52,41M32,41A8.8,8.8,0,0,0,41,32V32a8.8,8.8,0,0,0-9-8.91A8.8,8.8,0,0,0,23,32V32A8.8,8.8,0,0,0,32,41m0,20A8.8,8.8,0,0,0,41,52V52a8.8,8.8,0,0,0-9-8.91A8.8,8.8,0,0,0,23,52V52A8.8,8.8,0,0,0,32,61m20-4.72h0a4.23,4.23,0,0,0,0-8.46H52a4.23,4.23,0,0,0,0,8.46h0M53.24,0H10.76A10.76,10.76,0,0,0,0,10.76V53.24A10.76,10.76,0,0,0,10.76,64H53.24A10.76,10.76,0,0,0,64,53.24V10.76A10.76,10.76,0,0,0,53.24,0ZM52,20a8,8,0,0,1-8-8,8,8,0,0,1,16,0,8,8,0,0,1-8,8ZM32,15.23a3.23,3.23,0,0,1,0-6.46,3.23,3.23,0,0,1,0,6.46ZM4,25.11V23.46H15.07v1.65H10.49V38.45h-2V25.11ZM52,40a8,8,0,1,1,8-8,7.83,7.83,0,0,1-8,8ZM32,40a8,8,0,1,1,0-15.9A8,8,0,1,1,32,40Zm0,20a8,8,0,1,1,0-15.9A8,8,0,1,1,32,60Zm20-4.72a3.23,3.23,0,0,1,0-6.46,3.23,3.23,0,0,1,0,6.46Z" fill="#2b7fff" class="color000000 svgShape"></path>
  </g>
</svg>
